<svg xmlns="http://www.w3.org/2000/svg" viewBox="0 0 227.156 40">
    <g>
        <g>
            <g>
                <path fill="white" fill-rule="evenodd"
                    d="M63.38600451 9.6094124h6.34516725c4.65695328 0 7.45605035 2.96600316 7.45605035 6.7911622 0 2.52274437-1.22032971 4.98802927-3.907244 6.01409125l3.0727136 4.87037417h-4.40522608l-4.54203434-7.44784185h1.88521787c2.9933648 0 4.01942677-1.99466448 4.01942677-3.43662358 0-2.02202613-1.10814693-3.18763253-4.01942677-3.18763253H67.2385252v14.07209796h-3.8525207V9.6094124z" />
                <path fill="white" fill-rule="evenodd"
                    d="M84.36416626 12.93111801c-3.99206543 0-7.1796875 3.21499252-7.1796875 7.20705795 0 3.99206543 3.19036865 7.20706177 7.1796875 7.20706177 3.98934936 0 7.17697144-3.21499634 7.17697144-7.20706177 0-3.99206543-3.18490601-7.20705795-7.17697144-7.20705795zm.00003052 3.60352707c1.9399414 0 3.491333 1.63623047 3.491333 3.60353088 0 1.97003937-1.5513916 3.60353089-3.491333 3.60353089-1.96731568 0-3.46398926-1.63623047-3.46398926-3.60353089 0-1.96730041 1.49667358-3.60353088 3.46398926-3.60353088z" />
                <path fill="white" fill-rule="evenodd"
                    d="M92.4851221 10.51234695l3.79779739-.90293454V27.0661468H92.4851221V10.51234695z" />
                <path fill="white" fill-rule="evenodd"
                    d="M97.64552979 10.51234695l3.79779739-.90293454V27.0661468h-3.79779739V10.51234695z" />
                <path fill="white" fill-rule="evenodd"
                    d="M109.91723633 12.93111801c-3.99206543 0-7.20706177 3.21499252-7.20706177 7.20705795 0 3.99206543 2.99337769 7.20706177 7.3164978 7.20432282 3.07546997 0 5.2644043-1.52404022 6.45736695-3.68561554l-3.02072144-1.80039215c-.61016846 1.32977295-1.88522339 2.16156769-3.40927124 2.16156769-1.99465942 0-3.2423706-.99869538-3.6856079-2.52274323h10.69839477V20.108078c0-3.98932647-2.90853882-7.17695999-7.14959717-7.17695999zm3.32443237 5.51610947h-6.70632934c.58279418-1.30241394 1.8031311-2.18893433 3.40927124-2.18893433 1.60610961 0 2.79910278.74697113 3.2970581 2.18893433z" />
                <path fill="white" fill-rule="evenodd"
                    d="M124.65148926 12.93111801c-3.13018799 0-6.73370362 2.30111313-6.73370362 7.20705795 0 4.87858582 3.74032593 7.20706177 6.67623902 7.20706177 1.8031311 0 3.27246094-.74971008 4.18634033-1.83049774v1.55140686h3.79779053V9.60941315h-3.79779053v4.95793152c-.9138794-.97134018-2.32849121-1.63622666-4.12887573-1.63622666zm.69226074 3.46671677c2.05212402 0 3.5487976 1.66085052 3.5487976 3.71297455 0 2.05212402-1.49667358 3.7430725-3.5487976 3.74034118-2.10684204 0-3.71298218-1.6061325-3.71298218-3.74034118 0-2.13420868 1.60614014-3.71297455 3.71298218-3.71297455z" />
            </g>
            <g>
                <path fill="white" fill-rule="evenodd"
                    d="M138.57856215 24.24789657l3.00430946-2.36404679c.8509474 1.46658459 2.19987687 2.31753198 3.73486558 2.31753198 1.68000547 0 2.57746768-1.0862576 2.57746768-2.27101717 0-1.42006977-1.72652028-1.86880087-3.57069567-2.43518708-2.31753198-.7086668-4.89499966-1.60886518-4.89499966-4.91962515 0-2.76626308 2.41329777-4.96613995 5.74594706-4.96613995 2.81277789 0 4.42164306 1.06436829 5.81708735 2.50632738l-2.71974827 2.05759628c-.7086668-1.06436829-1.72652028-1.6307545-3.07544976-1.6307545-1.53772488 0-2.36404679.82632191-2.36404679 1.91531569 0 1.32430398 1.65537999 1.77303509 3.49955537 2.38867227 2.34215747.75791778 4.99076545 1.79766058 4.99076545 5.10842055 0 2.7416376-2.17525139 5.39024557-5.98125727 5.39024557-3.12196457 0-5.20418633-1.32430399-6.76380053-3.09733908z" />
                <path fill="white" fill-rule="evenodd"
                    d="M152.65613243 10.51234695l3.79779739-.90293454V27.0661468h-3.79779739V10.51234695z" />
                <path fill="white" fill-rule="evenodd"
                    d="M164.68978882 12.93111801c-3.99206543 0-7.20706177 3.21499252-7.20706177 7.20705795 0 3.99206543 2.99337769 7.20706177 7.3164978 7.20432282 3.07546997 0 5.2644043-1.52404022 6.45736695-3.68561554l-3.02072144-1.80039215c-.61016846 1.32977295-1.88522339 2.16156769-3.40927124 2.16156769-1.99465942 0-3.2423706-.99869538-3.6856079-2.52274323h10.69839477V20.108078c0-3.98932647-2.90853882-7.17695999-7.14959717-7.17695999zm3.32443237 5.51610947h-6.70632934c.58007812-1.30241394 1.8031311-2.18893433 3.40927124-2.18893433 1.60610962 0 2.79907226.74697113 3.2970581 2.18893433z" />
                <path fill="white" fill-rule="evenodd"
                    d="M180.08618164 12.93111801c-3.99206543 0-7.20706177 3.21499252-7.20706177 7.20705795 0 3.99206543 2.9906311 7.20706177 7.3164978 7.20432282 3.07546998 0 5.2644043-1.52404022 6.45736695-3.68561554l-3.02072144-1.80039215c-.61016845 1.32977295-1.88522339 2.16156769-3.40927124 2.16156769-1.99465942 0-3.2423706-.99869538-3.6856079-2.52274323h10.69839477V20.108078c0-3.98932647-2.90853882-7.17695999-7.14959717-7.17695999zm3.3216858 5.51610947h-6.70632935c.58279419-1.30241394 1.8031311-2.18893433 3.40927124-2.18893433 1.60610962 0 2.79910278.74697113 3.2970581 2.18893433z" />
                <path fill="white" fill-rule="evenodd"
                    d="M186.59826254 13.2102059h3.907244l3.24235583 9.00745605 3.16027088-9.00745605h3.8525207l-5.0974759 13.85867706h-3.82515903l-5.23975648-13.85867706z" />
                <path fill="white" fill-rule="evenodd"
                    d="M207.48068237 12.93111801c-3.99206543 0-7.20706176 3.21499252-7.20706176 7.20705795 0 3.99206543 2.99337768 7.20706177 7.3164978 7.20432282 3.07546997 0 5.2644043-1.52404022 6.45736694-3.68561554l-3.02072143-1.80039215c-.61016846 1.32977295-1.8852234 2.16156769-3.40927124 2.16156769-1.99465943 0-3.24237061-.99869538-3.68560791-2.52274323h10.69839477V20.108078c0-3.98932647-2.90853882-7.17695999-7.14959717-7.17695999zm3.32443238 5.51610947h-6.70632935c.58279419-1.30241394 1.8031311-2.18893433 3.40927124-2.18893433 1.60610962 0 2.79907227.74697113 3.2970581 2.18893433z" />
                <path fill="white" fill-rule="evenodd"
                    d="M214.90936453 23.60216157l3.6308913-1.41459744c.49798208 1.27505301 1.5514057 1.88521787 2.91127984 1.88521787 1.24769136 0 1.91257952-.5828032 1.91257952-1.24769136 0-.74697312-1.35713797-.97133867-2.96600314-1.27505302-2.49538273-.44325877-4.98802928-1.30241466-4.98802928-4.26841781 0-2.32847664 2.24365552-4.40522608 5.68027909-4.35050277 3.1028114 0 4.87858266 1.27505301 5.87454682 3.21499419l-3.35453861 1.41459744c-.36117382-.9138792-1.30241467-1.52404406-2.55010603-1.52404406-1.24769136 0-1.80039674.52534374-1.80039674 1.13550859s.80443258.83179424 2.88118202 1.24769136c2.32847664.47062043 5.01539093 1.30241467 5.01539093 4.29577946 0 2.0247623-1.88521787 4.68431494-5.87454682 4.62959163-3.35180245 0-5.37656475-1.30241466-6.3725289-3.74307408z" />
            </g>
        </g>
        <g>
            <path fill="white" fill-rule="evenodd"
                d="M36.42930433 25.4353923H26.18510158l5.12210138 7.6722074L26.70497298 40 13.1390656 19.67576442h18.71810657l2.49538272-3.74033792H0l4.22737533-6.33148642h42.76899925L36.42930433 25.4353923z" />
            <path fill="white" fill-rule="evenodd"
                d="M53.4072098 0l-4.21643068 6.3178056H6.42177988L10.63821055 0H53.4072098z" />
        </g>
    </g>
</svg>
